<mxfile host="drawio-plugin" modified="2022-08-20T12:25:39.076Z" agent="5.0 (Macintosh; Intel Mac OS X 10_15_7) AppleWebKit/537.36 (KHTML, like Gecko) Chrome/97.0.4692.45 Safari/537.36" etag="cviikOmZkK0oi6fw-MQE" version="15.5.4" type="embed"><diagram id="23iRSUPoRavnBvh4doch" name="Page-1"><mxGraphModel dx="1980" dy="592" grid="1" gridSize="10" guides="1" tooltips="1" connect="1" arrows="1" fold="1" page="1" pageScale="1" pageWidth="827" pageHeight="1169" math="1" shadow="0"><root><mxCell id="0"/><mxCell id="1" parent="0"/><mxCell id="icNOWQyBWyIzbDw7gIsg-1" value="Environment" style="shape=umlFrame;whiteSpace=wrap;html=1;width=90;height=30;fontSize=14;fillColor=#76608a;fontColor=#ffffff;strokeColor=#432D57;" parent="1" vertex="1"><mxGeometry x="490" y="270" width="240" height="100" as="geometry"/></mxCell><mxCell id="icNOWQyBWyIzbDw7gIsg-7" value="\( \mathbf{o_{l1}} \in \mathbb{O}_{l1} \)" style="edgeStyle=orthogonalEdgeStyle;rounded=1;orthogonalLoop=1;jettySize=auto;html=1;exitX=0;exitY=0.5;exitDx=0;exitDy=0;fontSize=14;strokeColor=#8000FF;strokeWidth=2;fillColor=#6a00ff;labelBackgroundColor=#F5F5F5;fontColor=#8000FF;" parent="1" source="icNOWQyBWyIzbDw7gIsg-3" target="icNOWQyBWyIzbDw7gIsg-4" edge="1"><mxGeometry x="1" y="40" relative="1" as="geometry"><Array as="points"><mxPoint x="460" y="320"/><mxPoint x="460" y="110"/></Array><mxPoint x="40" y="40" as="offset"/></mxGeometry></mxCell><mxCell id="icNOWQyBWyIzbDw7gIsg-8" value="\( \mathbf{o_{l2}} \in \mathbb{O}_{l2} \)" style="edgeStyle=orthogonalEdgeStyle;rounded=1;orthogonalLoop=1;jettySize=auto;html=1;fontSize=14;strokeColor=#8000FF;strokeWidth=2;fillColor=#6a00ff;fontColor=#8000FF;labelBackgroundColor=#F5F5F5;" parent="1" source="icNOWQyBWyIzbDw7gIsg-3" target="icNOWQyBWyIzbDw7gIsg-5" edge="1"><mxGeometry x="1" y="40" relative="1" as="geometry"><Array as="points"><mxPoint x="460" y="320"/><mxPoint x="460" y="200"/></Array><mxPoint x="40" y="40" as="offset"/></mxGeometry></mxCell><mxCell id="icNOWQyBWyIzbDw7gIsg-27" style="edgeStyle=orthogonalEdgeStyle;rounded=1;orthogonalLoop=1;jettySize=auto;html=1;fontSize=14;strokeColor=#8000FF;strokeWidth=2;entryX=0;entryY=0.25;entryDx=0;entryDy=0;fillColor=#6a00ff;" parent="1" source="icNOWQyBWyIzbDw7gIsg-3" target="icNOWQyBWyIzbDw7gIsg-19" edge="1"><mxGeometry relative="1" as="geometry"><mxPoint x="370" y="490" as="targetPoint"/><Array as="points"><mxPoint x="460" y="320"/><mxPoint x="460" y="430"/><mxPoint x="20" y="430"/><mxPoint x="20" y="343"/></Array></mxGeometry></mxCell><mxCell id="icNOWQyBWyIzbDw7gIsg-30" value="Observations&lt;br&gt;\( (\mathbf{o_{l1}}, \mathbf{o_{l2}} ) \in \mathbb{O}\)" style="edgeStyle=orthogonalEdgeStyle;rounded=1;orthogonalLoop=1;jettySize=auto;html=1;entryX=0;entryY=0.25;entryDx=0;entryDy=0;fontSize=14;strokeColor=#8000FF;strokeWidth=2;fillColor=#6a00ff;labelBackgroundColor=#F5F5F5;fontColor=#8000FF;spacingRight=4;" parent="1" source="icNOWQyBWyIzbDw7gIsg-3" target="icNOWQyBWyIzbDw7gIsg-13" edge="1"><mxGeometry x="-0.4897" y="-20" relative="1" as="geometry"><Array as="points"><mxPoint x="460" y="320"/><mxPoint x="460" y="430"/><mxPoint x="20" y="430"/><mxPoint x="20" y="173"/></Array><mxPoint as="offset"/></mxGeometry></mxCell><mxCell id="icNOWQyBWyIzbDw7gIsg-3" value="Compute next state" style="rounded=0;whiteSpace=wrap;html=1;fontSize=14;fillColor=#76608a;fontColor=#ffffff;strokeColor=#432D57;" parent="1" vertex="1"><mxGeometry x="580" y="300" width="115" height="40" as="geometry"/></mxCell><mxCell id="icNOWQyBWyIzbDw7gIsg-6" value="\( \mathbf{a_{l1}} \in \mathbb{A}_{l1} \)" style="edgeStyle=orthogonalEdgeStyle;rounded=1;orthogonalLoop=1;jettySize=auto;html=1;entryX=1;entryY=0.5;entryDx=0;entryDy=0;fontSize=14;strokeWidth=2;fillColor=#76608a;strokeColor=#49315E;fontColor=#49315E;labelBackgroundColor=#F5F5F5;" parent="1" source="icNOWQyBWyIzbDw7gIsg-4" target="icNOWQyBWyIzbDw7gIsg-3" edge="1"><mxGeometry x="-1" y="-40" relative="1" as="geometry"><Array as="points"><mxPoint x="750" y="110"/><mxPoint x="750" y="320"/></Array><mxPoint x="-40" y="-40" as="offset"/></mxGeometry></mxCell><mxCell id="icNOWQyBWyIzbDw7gIsg-4" value="Learning agent l1" style="shape=umlFrame;whiteSpace=wrap;html=1;width=120;height=20;fontSize=14;fillColor=#76608a;fontColor=#ffffff;strokeColor=#432D57;" parent="1" vertex="1"><mxGeometry x="490" y="80" width="240" height="60" as="geometry"/></mxCell><mxCell id="icNOWQyBWyIzbDw7gIsg-9" style="edgeStyle=orthogonalEdgeStyle;rounded=1;orthogonalLoop=1;jettySize=auto;html=1;entryX=1;entryY=0.5;entryDx=0;entryDy=0;fontSize=14;strokeColor=#49315E;strokeWidth=2;" parent="1" source="icNOWQyBWyIzbDw7gIsg-5" target="icNOWQyBWyIzbDw7gIsg-3" edge="1"><mxGeometry relative="1" as="geometry"><Array as="points"><mxPoint x="750" y="200"/><mxPoint x="750" y="320"/></Array></mxGeometry></mxCell><mxCell id="icNOWQyBWyIzbDw7gIsg-31" value="&lt;font color=&quot;#432d57&quot;&gt;Actions &lt;br&gt;\( (\mathbf{a_{l1}}, \mathbf{a_{l2}}) \in \mathbb{A}\)&lt;/font&gt;" style="edgeLabel;html=1;align=center;verticalAlign=middle;resizable=0;points=[];fontSize=14;labelBackgroundColor=#F5F5F5;fontColor=#A680B8;" parent="icNOWQyBWyIzbDw7gIsg-9" vertex="1" connectable="0"><mxGeometry x="0.0615" y="1" relative="1" as="geometry"><mxPoint x="-56" y="-33" as="offset"/></mxGeometry></mxCell><mxCell id="YPfih54jTst55tzG4Sy_-1" style="edgeStyle=orthogonalEdgeStyle;rounded=1;orthogonalLoop=1;jettySize=auto;html=1;strokeWidth=2;entryX=0;entryY=0.75;entryDx=0;entryDy=0;strokeColor=#49315E;" parent="1" source="icNOWQyBWyIzbDw7gIsg-5" target="icNOWQyBWyIzbDw7gIsg-19" edge="1"><mxGeometry relative="1" as="geometry"><mxPoint x="10" y="460" as="targetPoint"/><Array as="points"><mxPoint x="750" y="200"/><mxPoint x="750" y="450"/><mxPoint x="30" y="450"/><mxPoint x="30" y="368"/></Array></mxGeometry></mxCell><mxCell id="YPfih54jTst55tzG4Sy_-2" value="\( \mathbf{a_{l2}} \in \mathbb{A}_{l2} \)" style="edgeStyle=orthogonalEdgeStyle;rounded=1;orthogonalLoop=1;jettySize=auto;html=1;strokeWidth=2;entryX=0;entryY=0.75;entryDx=0;entryDy=0;strokeColor=#49315E;fontSize=14;fontColor=#49315E;labelBackgroundColor=#F5F5F5;" parent="1" source="icNOWQyBWyIzbDw7gIsg-5" target="icNOWQyBWyIzbDw7gIsg-13" edge="1"><mxGeometry x="-1" y="40" relative="1" as="geometry"><mxPoint x="750" y="530" as="targetPoint"/><Array as="points"><mxPoint x="750" y="200"/><mxPoint x="750" y="450"/><mxPoint x="30" y="450"/><mxPoint x="30" y="198"/></Array><mxPoint x="-40" y="38" as="offset"/></mxGeometry></mxCell><mxCell id="icNOWQyBWyIzbDw7gIsg-5" value="Learning agent l2" style="shape=umlFrame;whiteSpace=wrap;html=1;width=120;height=20;fontSize=14;fillColor=#76608a;fontColor=#ffffff;strokeColor=#432D57;" parent="1" vertex="1"><mxGeometry x="490" y="170" width="240" height="60" as="geometry"/></mxCell><mxCell id="icNOWQyBWyIzbDw7gIsg-10" value="Judging agent" style="shape=umlFrame;whiteSpace=wrap;html=1;fontSize=14;width=110;height=30;fillColor=#647687;fontColor=#ffffff;strokeColor=#314354;" parent="1" vertex="1"><mxGeometry x="40" y="80" width="300" height="140" as="geometry"/></mxCell><mxCell id="icNOWQyBWyIzbDw7gIsg-11" value="Moral Value" style="shape=cylinder3;whiteSpace=wrap;html=1;boundedLbl=1;backgroundOutline=1;size=7;fontSize=14;fontColor=#ffffff;strokeWidth=1;align=center;fillColor=#647687;strokeColor=#314354;" parent="1" vertex="1"><mxGeometry x="160" y="90" width="60" height="50" as="geometry"/></mxCell><mxCell id="icNOWQyBWyIzbDw7gIsg-12" value="Moral Rules" style="shape=cylinder3;whiteSpace=wrap;html=1;boundedLbl=1;backgroundOutline=1;size=7;fontSize=14;fontColor=#ffffff;strokeWidth=1;align=center;fillColor=#647687;strokeColor=#314354;" parent="1" vertex="1"><mxGeometry x="260" y="90" width="60" height="50" as="geometry"/></mxCell><mxCell id="icNOWQyBWyIzbDw7gIsg-24" value="\( (f_{l1,j1}, f_{l2,j1} ) \)" style="edgeStyle=orthogonalEdgeStyle;rounded=1;orthogonalLoop=1;jettySize=auto;html=1;exitX=1;exitY=0.5;exitDx=0;exitDy=0;entryX=0;entryY=0.25;entryDx=0;entryDy=0;fontSize=11;strokeColor=#0080FF;strokeWidth=2;fillColor=#1ba1e2;fontColor=#0080FF;labelBackgroundColor=#F5F5F5;" parent="1" source="icNOWQyBWyIzbDw7gIsg-13" target="icNOWQyBWyIzbDw7gIsg-22" edge="1"><mxGeometry x="-0.1579" y="-15" relative="1" as="geometry"><mxPoint x="15" y="-15" as="offset"/></mxGeometry></mxCell><mxCell id="icNOWQyBWyIzbDw7gIsg-13" value="Judgment&lt;br style=&quot;font-size: 14px;&quot;&gt;Process" style="rounded=0;whiteSpace=wrap;html=1;fontSize=14;fontColor=#ffffff;strokeWidth=1;align=center;fillColor=#647687;strokeColor=#314354;" parent="1" vertex="1"><mxGeometry x="190" y="160" width="100" height="50" as="geometry"/></mxCell><mxCell id="icNOWQyBWyIzbDw7gIsg-14" value="" style="endArrow=classic;html=1;rounded=1;fontSize=14;strokeColor=#001DBC;strokeWidth=2;fillColor=#0050ef;" parent="1" source="icNOWQyBWyIzbDw7gIsg-11" target="icNOWQyBWyIzbDw7gIsg-13" edge="1"><mxGeometry width="50" height="50" relative="1" as="geometry"><mxPoint x="120" y="400" as="sourcePoint"/><mxPoint x="170" y="350" as="targetPoint"/></mxGeometry></mxCell><mxCell id="icNOWQyBWyIzbDw7gIsg-15" value="" style="endArrow=classic;html=1;rounded=1;fontSize=14;strokeColor=#001DBC;strokeWidth=2;fillColor=#0050ef;" parent="1" source="icNOWQyBWyIzbDw7gIsg-12" target="icNOWQyBWyIzbDw7gIsg-13" edge="1"><mxGeometry width="50" height="50" relative="1" as="geometry"><mxPoint x="270" y="370" as="sourcePoint"/><mxPoint x="320" y="320" as="targetPoint"/></mxGeometry></mxCell><mxCell id="icNOWQyBWyIzbDw7gIsg-16" value="Judging agent" style="shape=umlFrame;whiteSpace=wrap;html=1;fontSize=14;width=110;height=30;fillColor=#647687;fontColor=#ffffff;strokeColor=#314354;" parent="1" vertex="1"><mxGeometry x="40" y="250" width="300" height="140" as="geometry"/></mxCell><mxCell id="icNOWQyBWyIzbDw7gIsg-17" value="Moral Value" style="shape=cylinder3;whiteSpace=wrap;html=1;boundedLbl=1;backgroundOutline=1;size=7;fontSize=14;fontColor=#ffffff;strokeWidth=1;align=center;fillColor=#647687;strokeColor=#314354;" parent="1" vertex="1"><mxGeometry x="160" y="260" width="60" height="50" as="geometry"/></mxCell><mxCell id="icNOWQyBWyIzbDw7gIsg-18" value="Moral Rules" style="shape=cylinder3;whiteSpace=wrap;html=1;boundedLbl=1;backgroundOutline=1;size=7;fontSize=14;fontColor=#ffffff;strokeWidth=1;align=center;fillColor=#647687;strokeColor=#314354;" parent="1" vertex="1"><mxGeometry x="260" y="260" width="60" height="50" as="geometry"/></mxCell><mxCell id="icNOWQyBWyIzbDw7gIsg-23" value="&lt;span style=&quot;color: rgb(0 , 128 , 255) ; font-size: 11px ; background-color: rgb(245 , 245 , 245)&quot;&gt;\( (f_{l1,j2}, f_{l2,j2} ) \)&lt;/span&gt;" style="edgeStyle=orthogonalEdgeStyle;rounded=1;orthogonalLoop=1;jettySize=auto;html=1;fontSize=14;strokeColor=#0080FF;strokeWidth=2;fillColor=#1ba1e2;" parent="1" source="icNOWQyBWyIzbDw7gIsg-19" target="icNOWQyBWyIzbDw7gIsg-22" edge="1"><mxGeometry x="-0.4839" y="-15" relative="1" as="geometry"><Array as="points"><mxPoint x="350" y="355"/><mxPoint x="350" y="280"/></Array><mxPoint as="offset"/></mxGeometry></mxCell><mxCell id="icNOWQyBWyIzbDw7gIsg-19" value="Judgment&lt;br style=&quot;font-size: 14px;&quot;&gt;Process" style="rounded=0;whiteSpace=wrap;html=1;fontSize=14;fontColor=#ffffff;strokeWidth=1;align=center;fillColor=#647687;strokeColor=#314354;" parent="1" vertex="1"><mxGeometry x="190" y="330" width="100" height="50" as="geometry"/></mxCell><mxCell id="icNOWQyBWyIzbDw7gIsg-20" value="" style="endArrow=classic;html=1;rounded=1;fontSize=14;strokeColor=#001DBC;strokeWidth=2;fillColor=#0050ef;" parent="1" source="icNOWQyBWyIzbDw7gIsg-17" target="icNOWQyBWyIzbDw7gIsg-19" edge="1"><mxGeometry width="50" height="50" relative="1" as="geometry"><mxPoint x="120" y="570" as="sourcePoint"/><mxPoint x="170" y="520" as="targetPoint"/></mxGeometry></mxCell><mxCell id="icNOWQyBWyIzbDw7gIsg-21" value="" style="endArrow=classic;html=1;rounded=1;fontSize=14;strokeColor=#001DBC;strokeWidth=2;fillColor=#0050ef;" parent="1" source="icNOWQyBWyIzbDw7gIsg-18" target="icNOWQyBWyIzbDw7gIsg-19" edge="1"><mxGeometry width="50" height="50" relative="1" as="geometry"><mxPoint x="270" y="540" as="sourcePoint"/><mxPoint x="320" y="490" as="targetPoint"/></mxGeometry></mxCell><mxCell id="icNOWQyBWyIzbDw7gIsg-25" value="" style="edgeStyle=orthogonalEdgeStyle;rounded=1;orthogonalLoop=1;jettySize=auto;html=1;exitX=1;exitY=0.5;exitDx=0;exitDy=0;entryX=0;entryY=0.775;entryDx=0;entryDy=0;entryPerimeter=0;fontSize=14;strokeColor=#0080FF;strokeWidth=2;labelBackgroundColor=#F5F5F5;fontColor=#0080FF;" parent="1" source="icNOWQyBWyIzbDw7gIsg-22" target="icNOWQyBWyIzbDw7gIsg-4" edge="1"><mxGeometry x="0.455" y="21" relative="1" as="geometry"><Array as="points"><mxPoint x="440" y="240"/><mxPoint x="440" y="127"/></Array><mxPoint x="1" y="-7" as="offset"/></mxGeometry></mxCell><mxCell id="icNOWQyBWyIzbDw7gIsg-26" style="edgeStyle=orthogonalEdgeStyle;rounded=1;orthogonalLoop=1;jettySize=auto;html=1;fontSize=14;strokeColor=#0080FF;strokeWidth=2;" parent="1" source="icNOWQyBWyIzbDw7gIsg-22" edge="1"><mxGeometry relative="1" as="geometry"><mxPoint x="490" y="215" as="targetPoint"/><Array as="points"><mxPoint x="440" y="240"/><mxPoint x="440" y="215"/></Array></mxGeometry></mxCell><mxCell id="icNOWQyBWyIzbDw7gIsg-22" value="Aggregation" style="rounded=0;whiteSpace=wrap;html=1;fontSize=14;horizontal=0;fillColor=#647687;fontColor=#ffffff;strokeColor=#314354;" parent="1" vertex="1"><mxGeometry x="370" y="180" width="50" height="120" as="geometry"/></mxCell><mxCell id="2" value="\( (\mathbf{o_{l1}}, \mathbf{o_{l2}} ) \)" style="text;html=1;align=center;verticalAlign=middle;resizable=0;points=[];autosize=1;strokeColor=none;fillColor=none;fontSize=14;fontColor=#8000FF;labelBackgroundColor=#F5F5F5;" parent="1" vertex="1"><mxGeometry x="-20" y="150" width="250" height="20" as="geometry"/></mxCell><mxCell id="4" value="\( (\mathbf{o_{l1}}, \mathbf{o_{l2}} ) \)" style="text;html=1;align=center;verticalAlign=middle;resizable=0;points=[];autosize=1;strokeColor=none;fillColor=none;fontSize=14;fontColor=#8000FF;labelBackgroundColor=#F5F5F5;" parent="1" vertex="1"><mxGeometry x="-20" y="320" width="250" height="20" as="geometry"/></mxCell><mxCell id="5" value="\( (\mathbf{a_{l1}}, \mathbf{a_{l2}} ) \)" style="text;html=1;align=center;verticalAlign=middle;resizable=0;points=[];autosize=1;strokeColor=none;fillColor=none;fontSize=14;fontColor=#49315E;labelBackgroundColor=#F5F5F5;" parent="1" vertex="1"><mxGeometry x="-20" y="199" width="250" height="20" as="geometry"/></mxCell><mxCell id="6" value="\( (\mathbf{a_{l1}}, \mathbf{a_{l2}} ) \)" style="text;html=1;align=center;verticalAlign=middle;resizable=0;points=[];autosize=1;strokeColor=none;fillColor=none;fontSize=14;fontColor=#49315E;labelBackgroundColor=#F5F5F5;" parent="1" vertex="1"><mxGeometry x="-20" y="369" width="250" height="20" as="geometry"/></mxCell><mxCell id="7" value="\( r_{l1} \in \mathbb{R} \)" style="text;html=1;align=center;verticalAlign=middle;resizable=0;points=[];autosize=1;strokeColor=none;fillColor=none;fontSize=14;fontColor=#0080FF;labelBackgroundColor=#F5F5F5;" parent="1" vertex="1"><mxGeometry x="440" y="120" width="170" height="20" as="geometry"/></mxCell><mxCell id="8" value="\( r_{l2} \in \mathbb{R} \)" style="text;html=1;align=center;verticalAlign=middle;resizable=0;points=[];autosize=1;strokeColor=none;fillColor=none;fontSize=14;fontColor=#0080FF;labelBackgroundColor=#F5F5F5;" parent="1" vertex="1"><mxGeometry x="440" y="210" width="170" height="20" as="geometry"/></mxCell><mxCell id="9" value="&lt;span style=&quot;color: rgb(0, 128, 255); font-size: 14px;&quot;&gt;Rewards&lt;/span&gt;&lt;br style=&quot;color: rgb(0 , 128 , 255) ; font-size: 14px&quot;&gt;&lt;span style=&quot;color: rgb(0, 128, 255); font-size: 14px;&quot;&gt;\(\in \mathbb{R}^{\left|\mathcal{L}\right|}\)&lt;br&gt;&lt;/span&gt;" style="text;html=1;strokeColor=none;fillColor=none;align=center;verticalAlign=middle;whiteSpace=wrap;rounded=0;labelBackgroundColor=#F5F5F5;" vertex="1" parent="1"><mxGeometry x="380" y="120" width="60" height="30" as="geometry"/></mxCell></root></mxGraphModel></diagram></mxfile>